<svg width="227" height="185" viewBox="0 0 227 185" fill="none" xmlns="http://www.w3.org/2000/svg">
<path d="M113.5 12.0744C113.5 5.40155 108.099 0 101.439 0H12.0669C5.40727 0 0 5.4074 0 12.0744V63.9339C0 70.6009 5.40142 76.0083 12.061 76.0083H214.939C221.599 76.0083 227 70.6009 227 63.9339V36.229C227 29.562 221.599 24.1546 214.939 24.1546H125.561C118.901 24.1546 113.5 18.7472 113.5 12.0802V12.0744Z" fill="#77B3FE"/>
<path d="M19.2356 32.9014H217.73C222.845 32.9014 226.994 37.0551 226.994 42.1754V165.743C226.994 176.37 218.374 185 207.759 185H19.2356C8.62003 185 0 176.37 0 165.743V52.1583C0 41.531 8.62003 32.9014 19.2356 32.9014Z" fill="#5674CA"/>
</svg>
