<svg width="215" height="191" viewBox="0 0 215 191" fill="none" xmlns="http://www.w3.org/2000/svg">
<path d="M0 78.7543H215V178.051C215 184.684 209.617 190.068 202.983 190.068H12.0165C5.38341 190.068 0 184.684 0 178.051V78.7543Z" fill="#5674CA"/>
<path d="M100.218 2.45738L0 78.7544H215L114.774 2.45738C110.472 -0.819128 104.52 -0.819128 100.218 2.45738Z" fill="#5674CA"/>
<path d="M113.276 15.9083C109.791 13.2727 104.985 13.2727 101.5 15.9083L24.5139 74.2206C21.6219 76.4076 19.9236 79.8283 19.9236 83.4573V142.651C19.9236 154.315 29.3766 163.768 41.0407 163.768H173.743C185.407 163.768 194.86 154.315 194.86 142.651V83.4573C194.86 79.8283 193.162 76.4156 190.27 74.2206L113.276 15.9083Z" fill="#88CCEA"/>
<path d="M186.201 151.385L204.361 69.8111C205.487 64.754 202.3 59.7417 197.242 58.616L59.2261 27.8921C54.1689 26.7663 49.1567 29.9533 48.0309 35.0105L29.8717 116.585C28.7459 121.642 31.9329 126.654 36.99 127.78L175.006 158.504C180.063 159.63 185.076 156.443 186.201 151.385Z" fill="#E7F4F7"/>
<path d="M215 78.7543V178.051C215 184.684 209.617 190.068 202.983 190.068H12.0165C5.38341 190.068 0 184.684 0 178.051" fill="#5674CA"/>
<path d="M0 78.7543V178.051C0 184.684 5.38341 190.068 12.0165 190.068H202.983C209.617 190.068 215 184.684 215 178.051" fill="#5674CA"/>
</svg>
