<?xml version="1.0" encoding="UTF-8"?>
<svg xmlns="http://www.w3.org/2000/svg" xmlns:xlink="http://www.w3.org/1999/xlink" width="100px" height="45px" viewBox="0 0 34 45" version="1.1">
<g id="surface1">
<path style=" stroke:none;fill-rule:nonzero;fill:rgb(46.666667%,70.196078%,99.607843%);fill-opacity:1;" d="M 34 12.925781 L 34 43.617188 C 34 44.378906 33.394531 45 32.644531 45 L 1.355469 45 C 0.605469 45 0 44.378906 0 43.617188 L 0 1.382812 C 0 0.621094 0.605469 0 1.355469 0 L 21.351562 0 Z M 34 12.925781 "/>
<path style=" stroke:none;fill-rule:nonzero;fill:rgb(33.72549%,45.490196%,79.215686%);fill-opacity:1;" d="M 21.324219 12.230469 L 21.324219 0 L 33.972656 12.925781 L 22 12.925781 C 21.625 12.925781 21.324219 12.613281 21.324219 12.230469 Z M 21.324219 12.230469 "/>
<path style=" stroke:none;fill-rule:nonzero;fill:rgb(100%,100%,100%);fill-opacity:1;" d="M 16.253906 14.824219 L 16.429688 14.824219 C 16.882812 14.824219 17.25 15.199219 17.25 15.664062 L 17.25 32.574219 C 17.25 33.035156 16.882812 33.410156 16.429688 33.410156 L 16.253906 33.410156 C 15.800781 33.410156 15.433594 33.035156 15.433594 32.574219 L 15.433594 15.664062 C 15.433594 15.199219 15.800781 14.824219 16.253906 14.824219 Z M 16.253906 14.824219 "/>
<path style=" stroke:none;fill-rule:nonzero;fill:rgb(100%,100%,100%);fill-opacity:1;" d="M 19.796875 19.332031 C 20.300781 19.332031 20.707031 19.75 20.707031 20.261719 L 20.707031 27.976562 C 20.707031 28.488281 20.300781 28.902344 19.796875 28.902344 C 19.296875 28.902344 18.886719 28.488281 18.886719 27.976562 L 18.886719 20.261719 C 18.886719 19.75 19.296875 19.332031 19.796875 19.332031 Z M 19.796875 19.332031 "/>
<path style=" stroke:none;fill-rule:nonzero;fill:rgb(100%,100%,100%);fill-opacity:1;" d="M 23.105469 22.292969 L 23.398438 22.292969 C 23.820312 22.292969 24.160156 22.640625 24.160156 23.070312 L 24.160156 25.164062 C 24.160156 25.59375 23.820312 25.941406 23.398438 25.941406 L 23.105469 25.941406 C 22.683594 25.941406 22.34375 25.59375 22.34375 25.164062 L 22.34375 23.070312 C 22.34375 22.640625 22.683594 22.292969 23.105469 22.292969 Z M 23.105469 22.292969 "/>
<path style=" stroke:none;fill-rule:nonzero;fill:rgb(100%,100%,100%);fill-opacity:1;" d="M 26.707031 22.722656 C 27.210938 22.722656 27.617188 23.140625 27.617188 23.652344 L 27.617188 24.582031 C 27.617188 25.097656 27.210938 25.511719 26.707031 25.511719 C 26.207031 25.511719 25.796875 25.097656 25.796875 24.582031 L 25.796875 23.652344 C 25.796875 23.140625 26.207031 22.722656 26.707031 22.722656 Z M 26.707031 22.722656 "/>
<path style=" stroke:none;fill-rule:nonzero;fill:rgb(100%,100%,100%);fill-opacity:1;" d="M 5.972656 22.722656 L 5.976562 22.722656 C 6.476562 22.722656 6.882812 23.140625 6.882812 23.652344 L 6.882812 24.582031 C 6.882812 25.097656 6.476562 25.511719 5.976562 25.511719 L 5.972656 25.511719 C 5.472656 25.511719 5.066406 25.097656 5.066406 24.582031 L 5.066406 23.652344 C 5.066406 23.140625 5.472656 22.722656 5.972656 22.722656 Z M 5.972656 22.722656 "/>
<path style=" stroke:none;fill-rule:nonzero;fill:rgb(100%,100%,100%);fill-opacity:1;" d="M 9.429688 18.1875 C 9.933594 18.1875 10.339844 18.605469 10.339844 19.117188 L 10.339844 29.117188 C 10.339844 29.632812 9.933594 30.046875 9.429688 30.046875 C 8.929688 30.046875 8.519531 29.632812 8.519531 29.117188 L 8.519531 19.117188 C 8.519531 18.605469 8.929688 18.1875 9.429688 18.1875 Z M 9.429688 18.1875 "/>
<path style=" stroke:none;fill-rule:nonzero;fill:rgb(100%,100%,100%);fill-opacity:1;" d="M 12.886719 20.726562 C 13.386719 20.726562 13.796875 21.140625 13.796875 21.65625 L 13.796875 26.582031 C 13.796875 27.09375 13.386719 27.511719 12.886719 27.511719 C 12.382812 27.511719 11.976562 27.09375 11.976562 26.582031 L 11.976562 21.65625 C 11.976562 21.140625 12.382812 20.726562 12.886719 20.726562 Z M 12.886719 20.726562 "/>
</g>
</svg>
