<svg width="17" height="16" viewBox="0 0 17 16" fill="none" xmlns="http://www.w3.org/2000/svg">
<path d="M4 8C4 10.2091 5.79086 12 8 12C10.2091 12 12 10.2091 12 8C12 5.79086 10.2091 4 8 4C5.79086 4 4 5.79086 4 8Z" fill="#E7F4F7" stroke="#E7F4F7" stroke-width="0.949555" stroke-miterlimit="10"/>
<line x1="8.59424" x2="8.59424" y2="2.16534" stroke="#E7F4F7"/>
<line x1="7.87256" x2="7.87256" y2="2.16534" stroke="#E7F4F7"/>
<line x1="16.0337" y1="8.43945" x2="13.8683" y2="8.43945" stroke="#E7F4F7"/>
<line x1="16.0337" y1="7.71777" x2="13.8683" y2="7.71777" stroke="#E7F4F7"/>
<line x1="0.154785" y1="7.43945" x2="2.32013" y2="7.43945" stroke="#E7F4F7"/>
<line x1="0.154785" y1="8.05859" x2="2.32013" y2="8.05859" stroke="#E7F4F7"/>
<line x1="7.59424" y1="15.8794" x2="7.59424" y2="13.7141" stroke="#E7F4F7"/>
<line x1="8.21338" y1="15.8794" x2="8.21338" y2="13.7141" stroke="#E7F4F7"/>
<line x1="14.0655" y1="2.66996" x2="12.5343" y2="4.20109" stroke="#E7F4F7"/>
<line x1="13.5552" y1="2.15971" x2="12.0241" y2="3.69084" stroke="#E7F4F7"/>
<line x1="13.3584" y1="13.8985" x2="11.8272" y2="12.3673" stroke="#E7F4F7"/>
<line x1="13.8686" y1="13.3877" x2="12.3375" y2="11.8566" stroke="#E7F4F7"/>
<line x1="2.83744" y1="1.96285" x2="4.36857" y2="3.49398" stroke="#E7F4F7"/>
<line x1="2.39945" y1="2.40084" x2="3.93058" y2="3.93197" stroke="#E7F4F7"/>
<line x1="2.13033" y1="13.1914" x2="3.66146" y2="11.6602" stroke="#E7F4F7"/>
<line x1="2.56832" y1="13.6289" x2="4.09945" y2="12.0977" stroke="#E7F4F7"/>
</svg>
