<?xml version="1.0" encoding="UTF-8"?>
<svg xmlns="http://www.w3.org/2000/svg" xmlns:xlink="http://www.w3.org/1999/xlink" width="100px" height="45px" viewBox="0 0 34 45" version="1.1">
<g id="surface1">
<path style=" stroke:none;fill-rule:nonzero;fill:rgb(46.666667%,70.196078%,99.607843%);fill-opacity:1;" d="M 34 12.925781 L 34 43.617188 C 34 44.378906 33.394531 45 32.644531 45 L 1.355469 45 C 0.605469 45 0 44.378906 0 43.617188 L 0 1.382812 C 0 0.621094 0.605469 0 1.355469 0 L 21.351562 0 Z M 34 12.925781 "/>
<path style=" stroke:none;fill-rule:nonzero;fill:rgb(33.72549%,45.490196%,79.215686%);fill-opacity:1;" d="M 21.324219 12.230469 L 21.324219 0 L 33.972656 12.925781 L 22 12.925781 C 21.625 12.925781 21.324219 12.613281 21.324219 12.230469 Z M 21.324219 12.230469 "/>
<path style=" stroke:none;fill-rule:nonzero;fill:rgb(100%,100%,100%);fill-opacity:1;" d="M 9.164062 37.910156 C 9.164062 37.304688 9.632812 36.824219 10.226562 36.824219 C 10.820312 36.824219 11.292969 37.304688 11.292969 37.910156 C 11.292969 38.515625 10.820312 39 10.226562 39 C 9.632812 39 9.164062 38.515625 9.164062 37.910156 Z M 9.164062 37.910156 "/>
<path style=" stroke:none;fill-rule:nonzero;fill:rgb(100%,100%,100%);fill-opacity:1;" d="M 14.816406 28.097656 L 14.816406 30.164062 L 16.441406 30.164062 L 16.441406 31.585938 L 14.816406 31.585938 L 14.816406 36.40625 C 14.816406 37.164062 15.140625 37.503906 15.855469 37.503906 C 16.035156 37.503906 16.320312 37.488281 16.433594 37.460938 L 16.433594 38.882812 C 16.238281 38.933594 15.847656 38.964844 15.457031 38.964844 C 13.726562 38.964844 13.050781 38.292969 13.050781 36.605469 L 13.050781 31.585938 L 11.804688 31.585938 L 11.804688 30.164062 L 13.050781 30.164062 L 13.050781 28.097656 Z M 14.816406 28.097656 "/>
<path style=" stroke:none;fill-rule:nonzero;fill:rgb(100%,100%,100%);fill-opacity:1;" d="M 21.042969 35.691406 L 19.148438 38.910156 L 17.246094 38.910156 L 20.070312 34.546875 L 17.289062 30.164062 L 19.253906 30.164062 L 21.125 33.332031 L 21.160156 33.332031 L 23.003906 30.164062 L 24.941406 30.164062 L 22.132812 34.488281 L 24.90625 38.910156 L 22.972656 38.910156 L 21.085938 35.691406 Z M 21.042969 35.691406 "/>
<path style=" stroke:none;fill-rule:nonzero;fill:rgb(100%,100%,100%);fill-opacity:1;" d="M 28.324219 28.097656 L 28.324219 30.164062 L 29.949219 30.164062 L 29.949219 31.585938 L 28.324219 31.585938 L 28.324219 36.40625 C 28.324219 37.164062 28.648438 37.503906 29.363281 37.503906 C 29.542969 37.503906 29.828125 37.488281 29.941406 37.460938 L 29.941406 38.882812 C 29.746094 38.933594 29.355469 38.964844 28.964844 38.964844 C 27.234375 38.964844 26.558594 38.292969 26.558594 36.605469 L 26.558594 31.585938 L 25.3125 31.585938 L 25.3125 30.164062 L 26.558594 30.164062 L 26.558594 28.097656 Z M 28.324219 28.097656 "/>
</g>
</svg>
