<?xml version="1.0" encoding="UTF-8"?>
<svg xmlns="http://www.w3.org/2000/svg" xmlns:xlink="http://www.w3.org/1999/xlink" width="100px" height="45px" viewBox="0 0 34 45" version="1.1">
<g id="surface1">
<path style=" stroke:none;fill-rule:nonzero;fill:rgb(46.666667%,70.196078%,99.607843%);fill-opacity:1;" d="M 34 12.925781 L 34 43.617188 C 34 44.378906 33.394531 45 32.644531 45 L 1.355469 45 C 0.605469 45 0 44.378906 0 43.617188 L 0 1.382812 C 0 0.621094 0.605469 0 1.355469 0 L 21.351562 0 Z M 34 12.925781 "/>
<path style=" stroke:none;fill-rule:nonzero;fill:rgb(33.72549%,45.490196%,79.215686%);fill-opacity:1;" d="M 21.324219 12.230469 L 21.324219 0 L 33.972656 12.925781 L 22 12.925781 C 21.625 12.925781 21.324219 12.613281 21.324219 12.230469 Z M 21.324219 12.230469 "/>
<path style=" stroke:none;fill-rule:nonzero;fill:rgb(100%,100%,100%);fill-opacity:1;" d="M 24.152344 22.691406 L 13.148438 16.203125 C 12.40625 15.765625 11.480469 16.3125 11.480469 17.1875 L 11.480469 30.167969 C 11.480469 31.046875 12.40625 31.59375 13.148438 31.15625 L 24.152344 24.664062 C 24.894531 24.226562 24.894531 23.132812 24.152344 22.695312 Z M 24.152344 22.691406 "/>
</g>
</svg>
