<svg width="1440" height="1441" viewBox="0 0 1440 1441" fill="none" xmlns="http://www.w3.org/2000/svg">
<g clip-path="url(#clip0_88_215)">
<path d="M1496.19 -37.1913H-57.1909V836.191H1496.19V-37.1913Z" stroke="black" stroke-opacity="0.1" stroke-width="2" stroke-miterlimit="10"/>
<path d="M-57.1909 748.853H1496.19" stroke="black" stroke-opacity="0.1" stroke-width="2" stroke-miterlimit="10"/>
<path d="M-57.1909 661.515H1496.19" stroke="black" stroke-opacity="0.1" stroke-width="2" stroke-miterlimit="10"/>
<path d="M-57.1909 574.177H1496.19" stroke="black" stroke-opacity="0.1" stroke-width="2" stroke-miterlimit="10"/>
<path d="M-57.1909 486.838H1496.19" stroke="black" stroke-opacity="0.1" stroke-width="2" stroke-miterlimit="10"/>
<path d="M-57.1909 399.5H1496.19" stroke="black" stroke-opacity="0.1" stroke-width="2" stroke-miterlimit="10"/>
<path d="M-57.1909 312.162H1496.19" stroke="black" stroke-opacity="0.1" stroke-width="2" stroke-miterlimit="10"/>
<path d="M-57.1909 224.823H1496.19" stroke="black" stroke-opacity="0.1" stroke-width="2" stroke-miterlimit="10"/>
<path d="M-57.1909 137.485H1496.19" stroke="black" stroke-opacity="0.1" stroke-width="2" stroke-miterlimit="10"/>
<path d="M-57.1909 50.1469H1496.19" stroke="black" stroke-opacity="0.1" stroke-width="2" stroke-miterlimit="10"/>
<path d="M1414.44 -37.1913V836.191" stroke="black" stroke-opacity="0.1" stroke-width="2" stroke-miterlimit="10"/>
<path d="M1332.67 -37.1913V836.191" stroke="black" stroke-opacity="0.1" stroke-width="2" stroke-miterlimit="10"/>
<path d="M1250.92 -37.1913V836.191" stroke="black" stroke-opacity="0.1" stroke-width="2" stroke-miterlimit="10"/>
<path d="M1169.16 -37.1913V836.191" stroke="black" stroke-opacity="0.1" stroke-width="2" stroke-miterlimit="10"/>
<path d="M1087.41 -37.1913V836.191" stroke="black" stroke-opacity="0.1" stroke-width="2" stroke-miterlimit="10"/>
<path d="M1005.65 -37.1913V836.191" stroke="black" stroke-opacity="0.1" stroke-width="2" stroke-miterlimit="10"/>
<path d="M923.891 -37.1913V836.191" stroke="black" stroke-opacity="0.1" stroke-width="2" stroke-miterlimit="10"/>
<path d="M842.136 -37.1913V836.191" stroke="black" stroke-opacity="0.1" stroke-width="2" stroke-miterlimit="10"/>
<path d="M760.381 -37.1913V836.191" stroke="black" stroke-opacity="0.1" stroke-width="2" stroke-miterlimit="10"/>
<path d="M678.619 -37.1913V836.191" stroke="black" stroke-opacity="0.1" stroke-width="2" stroke-miterlimit="10"/>
<path d="M596.864 -37.1913V836.191" stroke="black" stroke-opacity="0.1" stroke-width="2" stroke-miterlimit="10"/>
<path d="M515.109 -37.1913V836.191" stroke="black" stroke-opacity="0.1" stroke-width="2" stroke-miterlimit="10"/>
<path d="M433.354 -37.1913V836.191" stroke="black" stroke-opacity="0.1" stroke-width="2" stroke-miterlimit="10"/>
<path d="M351.591 -37.1913V836.191" stroke="black" stroke-opacity="0.1" stroke-width="2" stroke-miterlimit="10"/>
<path d="M269.836 -37.1913V836.191" stroke="black" stroke-opacity="0.1" stroke-width="2" stroke-miterlimit="10"/>
<path d="M188.082 -37.1913V836.191" stroke="black" stroke-opacity="0.1" stroke-width="2" stroke-miterlimit="10"/>
<path d="M106.327 -37.1913V836.191" stroke="black" stroke-opacity="0.1" stroke-width="2" stroke-miterlimit="10"/>
<path d="M24.564 -37.1913V836.191" stroke="black" stroke-opacity="0.1" stroke-width="2" stroke-miterlimit="10"/>
</g>
<g clip-path="url(#clip1_88_215)">
<path d="M1496.19 836.809H-57.1909V1710.19H1496.19V836.809Z" stroke="black" stroke-opacity="0.1" stroke-width="2" stroke-miterlimit="10"/>
<path d="M-57.1909 1360.84H1496.19" stroke="black" stroke-opacity="0.1" stroke-width="2" stroke-miterlimit="10"/>
<path d="M-57.1909 1273.5H1496.19" stroke="black" stroke-opacity="0.1" stroke-width="2" stroke-miterlimit="10"/>
<path d="M-57.1909 1186.16H1496.19" stroke="black" stroke-opacity="0.1" stroke-width="2" stroke-miterlimit="10"/>
<path d="M-57.1909 1098.82H1496.19" stroke="black" stroke-opacity="0.1" stroke-width="2" stroke-miterlimit="10"/>
<path d="M-57.1909 1011.49H1496.19" stroke="black" stroke-opacity="0.1" stroke-width="2" stroke-miterlimit="10"/>
<path d="M-57.1909 924.147H1496.19" stroke="black" stroke-opacity="0.1" stroke-width="2" stroke-miterlimit="10"/>
<path d="M1414.44 836.809V1710.19" stroke="black" stroke-opacity="0.1" stroke-width="2" stroke-miterlimit="10"/>
<path d="M1332.67 836.809V1710.19" stroke="black" stroke-opacity="0.1" stroke-width="2" stroke-miterlimit="10"/>
<path d="M1250.92 836.809V1710.19" stroke="black" stroke-opacity="0.1" stroke-width="2" stroke-miterlimit="10"/>
<path d="M1169.16 836.809V1710.19" stroke="black" stroke-opacity="0.1" stroke-width="2" stroke-miterlimit="10"/>
<path d="M1087.41 836.809V1710.19" stroke="black" stroke-opacity="0.1" stroke-width="2" stroke-miterlimit="10"/>
<path d="M1005.65 836.809V1710.19" stroke="black" stroke-opacity="0.1" stroke-width="2" stroke-miterlimit="10"/>
<path d="M923.891 836.809V1710.19" stroke="black" stroke-opacity="0.1" stroke-width="2" stroke-miterlimit="10"/>
<path d="M842.136 836.809V1710.19" stroke="black" stroke-opacity="0.1" stroke-width="2" stroke-miterlimit="10"/>
<path d="M760.381 836.809V1710.19" stroke="black" stroke-opacity="0.1" stroke-width="2" stroke-miterlimit="10"/>
<path d="M678.619 836.809V1710.19" stroke="black" stroke-opacity="0.1" stroke-width="2" stroke-miterlimit="10"/>
<path d="M596.864 836.809V1710.19" stroke="black" stroke-opacity="0.1" stroke-width="2" stroke-miterlimit="10"/>
<path d="M515.109 836.809V1710.19" stroke="black" stroke-opacity="0.1" stroke-width="2" stroke-miterlimit="10"/>
<path d="M433.354 836.809V1710.19" stroke="black" stroke-opacity="0.1" stroke-width="2" stroke-miterlimit="10"/>
<path d="M351.591 836.809V1710.19" stroke="black" stroke-opacity="0.1" stroke-width="2" stroke-miterlimit="10"/>
<path d="M269.836 836.809V1710.19" stroke="black" stroke-opacity="0.1" stroke-width="2" stroke-miterlimit="10"/>
<path d="M188.082 836.809V1710.19" stroke="black" stroke-opacity="0.1" stroke-width="2" stroke-miterlimit="10"/>
<path d="M106.327 836.809V1710.19" stroke="black" stroke-opacity="0.1" stroke-width="2" stroke-miterlimit="10"/>
<path d="M24.564 836.809V1710.19" stroke="black" stroke-opacity="0.1" stroke-width="2" stroke-miterlimit="10"/>
</g>
<defs>
<clipPath id="clip0_88_215">
<rect width="1555" height="875" fill="white" transform="translate(-58 -38)"/>
</clipPath>
<clipPath id="clip1_88_215">
<rect width="1555" height="875" fill="white" transform="translate(-58 836)"/>
</clipPath>
</defs>
</svg>
